<?xml version="1.0" encoding="UTF-8"?>
<svg id="Layer_2" data-name="Layer 2" xmlns="http://www.w3.org/2000/svg" viewBox="0 0 205.24 28.76">
  <defs>
    <style>
      .cls-1 {
        fill: #475569;
      }

      .cls-1, .cls-2 {
        stroke-width: 0px;
      }

      .cls-2 {
        fill: #fed7aa;
      }
    </style>
  </defs>
  <g id="Layer_1-2" data-name="Layer 1">
    <g>
      <g>
        <path class="cls-2" d="m47.32,19.47c0,5.13-10.59,9.29-23.66,9.29S0,24.6,0,19.47c0-3.31,4.4-6.21,11.02-7.85-.08.47-.17,1.12-.27,1.86-.04.32-.08.65-.12.99-.17,1.45-.26,2.65-.32,3.49,1.56,1.09,5.83,3.79,11.94,4.29.69.06,1.41.08,2.15.08.6,0,1.18-.03,1.75-.08,6.08-.49,10.34-3.17,11.95-4.29-.56-1.5-1.02-2.8-1.4-3.92-.33-.97-.59-1.81-.8-2.52,6.84,1.63,11.41,4.58,11.41,7.95Z"/>
        <path class="cls-2" d="m36.71,14.04c-2.54,1.42-6.78,3.23-12.26,3.28-6.49.06-11.32-2.38-13.69-3.85.1-.74.19-1.39.27-1.86,0-.06.02-.11.03-.17.72-4.44,1.22-7.46,3.56-9.52.74-.65,1.47-1.3,2.46-1.28,1.16.03,1.21,1.34,2.56,1.91,1.76.74,3.97-.29,5.06-.79.43-.2.56-.3,1.76-.88.99-.48,1.79-.85,2.86-.87.07,0,.57-.02.65-.01,1.47.16,2.9,1.96,3.55,3.83,1.25,3.61,1.57,4.78,1.7,5.22.17.59.27.94.36,1.28.1.35.21.74.34,1.18.21.71.48,1.55.8,2.52Z"/>
        <path class="cls-1" d="m38.11,17.96c-1.61,1.12-5.86,3.8-11.95,4.29-.57.05-1.15.07-1.75.08-.74,0-1.46-.02-2.15-.08-6.11-.5-10.38-3.2-11.94-4.29.06-.84.15-2.05.32-3.49.04-.34.08-.68.12-.99,2.37,1.47,7.21,3.91,13.69,3.85,5.47-.05,9.72-1.86,12.26-3.28.37,1.12.84,2.42,1.4,3.92Z"/>
      </g>
      <g>
        <path class="cls-2" d="m82.41,20.08c0,1.03-.21,1.96-.63,2.77-.42.82-.98,1.51-1.69,2.07-.71.56-1.54,1-2.5,1.3-.96.3-1.98.45-3.06.45h-12.2V1.11h13.18c.89,0,1.69.19,2.41.58.72.38,1.33.88,1.84,1.49.5.61.89,1.31,1.17,2.09.28.78.41,1.57.41,2.36,0,1.25-.32,2.42-.95,3.51-.64,1.09-1.54,1.9-2.72,2.43,1.46.43,2.62,1.22,3.47,2.36.85,1.14,1.28,2.53,1.28,4.16Zm-16.06-15.48v7.52h7.42c.5,0,.97-.1,1.39-.29.42-.19.79-.45,1.12-.77.32-.32.58-.71.76-1.17s.27-.96.27-1.51c0-1.1-.31-2.01-.94-2.72-.62-.71-1.42-1.06-2.38-1.06h-7.63Zm11.92,14.72c0-.53-.09-1.03-.27-1.51-.18-.48-.42-.9-.72-1.26-.3-.36-.67-.65-1.1-.86-.43-.22-.9-.32-1.4-.32h-8.42v7.81h8.17c.53,0,1.02-.1,1.48-.31.46-.2.85-.48,1.19-.83.34-.35.6-.76.79-1.22.19-.47.29-.97.29-1.49Z"/>
        <path class="cls-2" d="m94.97,1.22h3.82l3.13,8.68,3.17-8.68h3.78l-4.36,11.38,3.82,9.4,7.96-20.88h4.43l-10.55,25.56h-3.46l-4.75-11.45-4.79,11.45h-3.46L83.17,1.11h4.39l7.99,20.88,3.82-9.4-4.39-11.38Z"/>
        <path class="cls-2" d="m152.39,1.11v25.56h-4.07v-11.27h-12.89v11.27h-4.03V1.11h4.03v10.69h12.89V1.11h4.07Z"/>
        <path class="cls-2" d="m162.47,27.03c-.91,0-1.76-.15-2.54-.45s-1.45-.71-2.02-1.24c-.56-.53-1.01-1.15-1.33-1.87-.32-.72-.49-1.5-.49-2.34,0-.89.19-1.69.58-2.41.38-.72.93-1.34,1.64-1.87.71-.53,1.55-.94,2.52-1.22.97-.29,2.05-.43,3.22-.43.89,0,1.76.08,2.63.23.86.16,1.64.37,2.34.63v-1.3c0-1.39-.4-2.48-1.19-3.26-.79-.78-1.93-1.17-3.42-1.17-1.01,0-2,.19-2.97.56-.97.37-1.97.91-3.01,1.6l-1.22-2.52c2.42-1.63,4.94-2.45,7.56-2.45s4.61.66,6.05,1.98c1.44,1.32,2.16,3.22,2.16,5.69v6.8c0,.84.35,1.27,1.04,1.3v3.38c-.38.07-.71.12-.99.14-.28.02-.55.04-.81.04-.77,0-1.36-.19-1.78-.58-.42-.38-.68-.88-.77-1.48l-.11-1.19c-.84,1.1-1.88,1.95-3.11,2.54-1.24.59-2.56.88-3.98.88Zm1.08-2.92c.96,0,1.87-.17,2.72-.52.85-.35,1.52-.83,2-1.46.5-.43.76-.89.76-1.37v-2.48c-.67-.26-1.39-.47-2.14-.61-.76-.14-1.49-.22-2.21-.22-1.42,0-2.57.31-3.47.92s-1.35,1.42-1.35,2.43c0,.94.35,1.72,1.04,2.36.7.64,1.58.95,2.66.95Z"/>
        <path class="cls-2" d="m188.11,25.7c-.5.24-1.2.51-2.09.81-.89.3-1.84.45-2.84.45-.62,0-1.21-.08-1.76-.25s-1.04-.42-1.46-.76c-.42-.34-.75-.77-.99-1.31-.24-.54-.36-1.19-.36-1.96v-11.77h-2.48v-3.06h2.48V1.65h3.96v6.19h4.1v3.06h-4.1v10.51c.05.67.26,1.16.63,1.46.37.3.83.45,1.39.45s1.08-.1,1.58-.29c.5-.19.88-.35,1.12-.47l.83,3.13Z"/>
        <path class="cls-2" d="m197.68,27.03c-1.51,0-3.02-.25-4.52-.74-1.5-.49-2.79-1.19-3.87-2.11l1.58-2.52c1.13.82,2.24,1.43,3.35,1.85s2.23.63,3.38.63,2.11-.23,2.79-.68c.68-.46,1.03-1.1,1.03-1.94,0-.79-.38-1.37-1.15-1.73-.77-.36-1.97-.76-3.6-1.19-1.18-.31-2.18-.61-3.02-.9-.84-.29-1.52-.62-2.05-1.01s-.91-.83-1.15-1.33c-.24-.5-.36-1.12-.36-1.84,0-.96.19-1.81.56-2.56.37-.74.89-1.37,1.55-1.89.66-.52,1.43-.91,2.32-1.17.89-.26,1.85-.4,2.88-.4,1.42,0,2.74.22,3.96.65,1.22.43,2.32,1.06,3.28,1.87l-1.69,2.38c-1.75-1.39-3.61-2.09-5.58-2.09-1.01,0-1.85.21-2.54.63s-1.03,1.09-1.03,2c0,.38.07.71.22.97.14.26.38.49.7.68.32.19.74.37,1.26.52.52.16,1.16.33,1.93.52,1.27.31,2.37.62,3.29.94.92.31,1.69.68,2.29,1.1.6.42,1.04.91,1.33,1.48.29.56.43,1.24.43,2.03,0,1.8-.68,3.22-2.03,4.27-1.36,1.04-3.2,1.57-5.53,1.57Z"/>
      </g>
    </g>
  </g>
</svg>