<svg width="48" height="48" viewBox="0 0 48 48" fill="none" xmlns="http://www.w3.org/2000/svg">
<g id="mingcute:hat-fill" clip-path="url(#clip0_42_5412)">
<g id="Group">
<path id="Vector" fill-rule="evenodd" clip-rule="evenodd" d="M10.06 27.402L11.48 16.022C11.5822 15.2033 11.8521 14.4145 12.2729 13.7049C12.6938 12.9952 13.2564 12.38 13.9257 11.8976C14.5951 11.4152 15.3567 11.0761 16.163 10.9013C16.9693 10.7266 17.803 10.72 18.612 10.882C20.326 11.226 22.248 11.922 24 11.922C25.752 11.922 27.674 11.226 29.388 10.882C30.1968 10.7203 31.0303 10.7271 31.8364 10.902C32.6425 11.0769 33.4039 11.4161 34.073 11.8985C34.7421 12.3808 35.3045 12.9959 35.7252 13.7054C36.1459 14.4149 36.4158 15.2035 36.518 16.022L37.942 27.402C40.214 27.97 44 29.07 44 32C44 35.192 39.574 36.244 37.16 36.78C33.724 37.544 29.072 38 24 38C18.928 38 14.276 37.544 10.84 36.78C8.424 36.244 4 35.192 4 32C4 29.07 7.786 27.97 10.06 27.402ZM11.706 32.876C10.456 32.598 9.486 32.296 8.796 32C9.486 31.704 10.456 31.4 11.706 31.124C14.782 30.44 19.13 30 24 30C28.87 30 33.218 30.44 36.294 31.124C37.544 31.402 38.514 31.704 39.204 32C38.514 32.296 37.544 32.598 36.294 32.876C33.218 33.56 28.87 34 24 34C19.13 34 14.782 33.56 11.706 32.876Z" fill="#FED7AA"/>
</g>
</g>
<defs>
<clipPath id="clip0_42_5412">
<rect width="48" height="48" fill="white"/>
</clipPath>
</defs>
</svg>
