<svg width="149" height="21" viewBox="0 0 149 21" fill="none" xmlns="http://www.w3.org/2000/svg">
<path d="M59.8251 14.579C59.8251 15.3267 59.6726 16.0018 59.3677 16.5898C59.0628 17.1851 58.6563 17.686 58.1409 18.0925C57.6254 18.4991 57.0229 18.8185 56.326 19.0363C55.6291 19.254 54.8886 19.3629 54.1046 19.3629H45.2481V0.8078H54.816C55.4621 0.8078 56.0429 0.94573 56.5656 1.22885C57.0883 1.50471 57.5311 1.86768 57.9013 2.3105C58.2643 2.75333 58.5474 3.26149 58.7507 3.82773C58.9539 4.39396 59.0483 4.96746 59.0483 5.54096C59.0483 6.44839 58.816 7.29774 58.3587 8.08902C57.8941 8.8803 57.2407 9.46831 56.3841 9.85306C57.444 10.1652 58.2861 10.7387 58.9031 11.5663C59.5202 12.3939 59.8323 13.4029 59.8323 14.5862L59.8251 14.579ZM48.1664 3.34134V8.80044H53.5529C53.9159 8.80044 54.2571 8.72785 54.562 8.58992C54.8669 8.45199 55.1355 8.26325 55.375 8.03094C55.6073 7.79864 55.7961 7.51552 55.9267 7.18159C56.0574 6.84765 56.1227 6.48468 56.1227 6.08541C56.1227 5.28687 55.8977 4.62627 55.4404 4.11085C54.9903 3.59542 54.4095 3.34134 53.7126 3.34134H48.1737H48.1664ZM56.8197 14.0272C56.8197 13.6425 56.7543 13.2795 56.6236 12.9311C56.493 12.5826 56.3188 12.2777 56.101 12.0164C55.8832 11.755 55.6146 11.5445 55.3024 11.3921C54.9903 11.2324 54.6491 11.1598 54.2861 11.1598H48.1737V16.8294H54.1046C54.4894 16.8294 54.8451 16.7568 55.179 16.6043C55.513 16.4592 55.7961 16.2559 56.0429 16.0018C56.2897 15.7477 56.4785 15.4501 56.6164 15.1162C56.7543 14.775 56.8269 14.412 56.8269 14.0345L56.8197 14.0272Z" fill="#FED7AA"/>
<path d="M68.9429 0.887654H71.716L73.9882 7.18885L76.2895 0.887654H79.0335L75.8684 9.1489L78.6415 15.9728L84.42 0.81506H87.636L79.9773 19.3702H77.4655L74.0173 11.0581L70.54 19.3702H68.0282L60.3768 0.8078H63.5637L69.364 15.9655L72.1371 9.14164L68.9502 0.880395L68.9429 0.887654Z" fill="#FED7AA"/>
<path d="M110.627 0.8078V19.3629H107.672V11.1815H98.3146V19.3629H95.389V0.8078H98.3146V8.56814H107.672V0.8078H110.627Z" fill="#FED7AA"/>
<path d="M117.944 19.6243C117.284 19.6243 116.666 19.5154 116.1 19.2976C115.534 19.0798 115.048 18.7822 114.634 18.3974C114.227 18.0127 113.901 17.5626 113.668 17.0399C113.436 16.5172 113.313 15.951 113.313 15.3412C113.313 14.6951 113.451 14.1144 113.734 13.5917C114.01 13.069 114.409 12.6189 114.924 12.2342C115.44 11.8494 116.049 11.5518 116.754 11.3485C117.458 11.138 118.242 11.0364 119.091 11.0364C119.737 11.0364 120.369 11.0944 121 11.2033C121.625 11.3195 122.191 11.4719 122.699 11.6607V10.717C122.699 9.70789 122.409 8.91661 121.835 8.35038C121.262 7.78414 120.434 7.50102 119.352 7.50102C118.619 7.50102 117.901 7.63895 117.196 7.90755C116.492 8.17615 115.766 8.56816 115.011 9.06906L114.126 7.23968C115.882 6.05639 117.712 5.46112 119.614 5.46112C121.516 5.46112 122.96 5.94024 124.006 6.89849C125.051 7.85674 125.574 9.23603 125.574 11.0291V15.9655C125.574 16.5753 125.828 16.8875 126.329 16.9093V19.3629C126.053 19.4138 125.813 19.4501 125.61 19.4646C125.407 19.4791 125.211 19.4936 125.022 19.4936C124.463 19.4936 124.035 19.3557 123.73 19.0726C123.425 18.7967 123.236 18.4337 123.171 17.9982L123.091 17.1343C122.481 17.9328 121.726 18.5499 120.833 18.9782C119.933 19.4065 118.975 19.617 117.944 19.617V19.6243ZM118.728 17.5045C119.425 17.5045 120.086 17.3811 120.703 17.127C121.32 16.873 121.806 16.5245 122.155 16.0672C122.518 15.755 122.706 15.4211 122.706 15.0726V13.2723C122.22 13.0835 121.697 12.9311 121.153 12.8295C120.601 12.7278 120.071 12.6697 119.548 12.6697C118.518 12.6697 117.683 12.8948 117.029 13.3376C116.376 13.7804 116.049 14.3685 116.049 15.1017C116.049 15.784 116.304 16.3503 116.804 16.8149C117.313 17.2795 117.951 17.5045 118.735 17.5045H118.728Z" fill="#FED7AA"/>
<path d="M136.557 18.6588C136.194 18.833 135.686 19.029 135.04 19.2468C134.394 19.4646 133.704 19.5735 132.978 19.5735C132.528 19.5735 132.1 19.5154 131.701 19.392C131.302 19.2686 130.946 19.0871 130.641 18.8403C130.336 18.5934 130.096 18.2813 129.922 17.8893C129.748 17.4973 129.661 17.0254 129.661 16.4664V7.92207H127.861V5.70068H129.661V1.19983H132.536V5.69342H135.512V7.91481H132.536V15.5445C132.572 16.0309 132.724 16.3866 132.993 16.6044C133.262 16.8221 133.595 16.931 134.002 16.931C134.409 16.931 134.786 16.8584 135.149 16.7205C135.512 16.5826 135.788 16.4664 135.962 16.3793L136.565 18.6515L136.557 18.6588Z" fill="#FED7AA"/>
<path d="M143.505 19.6243C142.408 19.6243 141.312 19.4428 140.223 19.0871C139.134 18.7314 138.198 18.2232 137.414 17.5553L138.561 15.726C139.381 16.3212 140.187 16.7641 140.993 17.069C141.799 17.3739 142.612 17.5263 143.447 17.5263C144.281 17.5263 144.978 17.3593 145.472 17.0327C145.966 16.6987 146.22 16.2341 146.22 15.6243C146.22 15.0508 145.944 14.6298 145.385 14.3684C144.826 14.1071 143.955 13.8167 142.771 13.5046C141.915 13.2795 141.189 13.0617 140.579 12.8512C139.969 12.6407 139.476 12.4011 139.091 12.118C138.706 11.8349 138.43 11.5155 138.256 11.1525C138.082 10.7895 137.995 10.3395 137.995 9.81678C137.995 9.11987 138.133 8.50282 138.401 7.95836C138.67 7.42116 139.047 6.96382 139.526 6.58633C140.006 6.20884 140.565 5.92572 141.211 5.73697C141.857 5.54823 142.554 5.44659 143.301 5.44659C144.332 5.44659 145.29 5.6063 146.176 5.91846C147.062 6.23061 147.86 6.68796 148.557 7.27597L147.33 9.00372C146.06 7.99466 144.71 7.4865 143.28 7.4865C142.546 7.4865 141.937 7.63894 141.436 7.94384C140.935 8.24874 140.688 8.73512 140.688 9.39573C140.688 9.67159 140.739 9.91115 140.848 10.0999C140.949 10.2886 141.124 10.4556 141.356 10.5935C141.588 10.7315 141.893 10.8621 142.271 10.971C142.648 11.0872 143.113 11.2106 143.672 11.3485C144.594 11.5736 145.392 11.7986 146.06 12.0309C146.728 12.2559 147.287 12.5245 147.722 12.8294C148.158 13.1343 148.477 13.4901 148.688 13.9038C148.898 14.3104 149 14.804 149 15.3775C149 16.6842 148.506 17.715 147.526 18.4773C146.539 19.2323 145.203 19.617 143.512 19.617L143.505 19.6243Z" fill="#FED7AA"/>
<path d="M34.3517 14.1361C34.3517 17.8602 26.6639 20.8801 17.1758 20.8801C7.68775 20.8801 0 17.8602 0 14.1361C0 11.7332 3.19415 9.62801 7.9999 8.43746C7.94183 8.77866 7.87649 9.25052 7.8039 9.78772C7.77486 10.02 7.74582 10.2596 7.71678 10.5064C7.59337 11.559 7.52804 12.4302 7.48448 13.0399C8.61696 13.8312 11.7167 15.7913 16.1523 16.1542C16.6532 16.1978 17.1758 16.2123 17.713 16.2123C18.1486 16.2123 18.5696 16.1905 18.9834 16.1542C23.3972 15.7985 26.4897 13.853 27.6585 13.0399C27.2519 11.951 26.918 11.0073 26.6421 10.1942C26.4026 9.49008 26.2138 8.88029 26.0614 8.36487C31.0268 9.54816 34.3444 11.6897 34.3444 14.1361H34.3517Z" fill="#FED7AA"/>
<path d="M26.6494 10.1943C24.8055 11.2251 21.7275 12.5391 17.7493 12.5754C13.038 12.6189 9.53164 10.8476 7.81116 9.7805C7.88375 9.2433 7.94909 8.77144 8.00716 8.43024C8.00716 8.38669 8.02168 8.35039 8.02894 8.30683C8.55162 5.08364 8.91459 2.89129 10.6133 1.39585C11.1505 0.923981 11.6804 0.452118 12.3991 0.466637C13.2412 0.488415 13.2775 1.4394 14.2575 1.85319C15.5352 2.39039 17.1395 1.64267 17.9308 1.27969C18.243 1.13451 18.3373 1.06191 19.2085 0.640863C19.9272 0.29241 20.5079 0.023811 21.2847 0.00929208C21.3355 0.00929208 21.6985 -0.0052268 21.7565 0.00203264C22.8237 0.118184 23.8618 1.42488 24.3336 2.7824C25.2411 5.40306 25.4734 6.25241 25.5677 6.57183C25.6912 7.00013 25.7638 7.25421 25.8291 7.50103C25.9017 7.75511 25.9815 8.03823 26.0759 8.35765C26.2284 8.87307 26.4244 9.48286 26.6567 10.187L26.6494 10.1943Z" fill="#FED7AA"/>
<path d="M27.6657 13.04C26.497 13.8531 23.4117 15.7986 18.9907 16.1543C18.5769 16.1906 18.1559 16.2051 17.7203 16.2124C17.1831 16.2124 16.6604 16.1979 16.1595 16.1543C11.724 15.7913 8.62423 13.8313 7.49176 13.04C7.53532 12.4302 7.60065 11.5518 7.72406 10.5065C7.7531 10.2596 7.78214 10.0128 7.81118 9.78778C9.53166 10.8549 13.0452 12.6262 17.7493 12.5827C21.7203 12.5464 24.8055 11.2324 26.6494 10.2016C26.918 11.0146 27.2592 11.9584 27.6657 13.0473V13.04Z" fill="#475569"/>
</svg>
