<svg width="18" height="19" viewBox="0 0 18 19" fill="none" xmlns="http://www.w3.org/2000/svg">
<g id="heroicons-solid/shopping-bag">
<path id="Subtract" fill-rule="evenodd" clip-rule="evenodd" d="M5.625 5V5.5625H4.13465C3.41499 5.5625 2.81147 6.10583 2.73613 6.82154L1.78876 15.8215C1.70136 16.6518 2.35239 17.375 3.18728 17.375H14.8128C15.6477 17.375 16.2988 16.6518 16.2114 15.8215L15.264 6.82154C15.1886 6.10583 14.5851 5.5625 13.8655 5.5625H12.375V5C12.375 3.13604 10.864 1.625 9 1.625C7.13604 1.625 5.625 3.13604 5.625 5ZM9 2.75C7.75736 2.75 6.75 3.75736 6.75 5V5.5625H11.25V5C11.25 3.75736 10.2426 2.75 9 2.75ZM6.75 8.9375C6.75 10.1801 7.75736 11.1875 9 11.1875C10.2426 11.1875 11.25 10.1801 11.25 8.9375V8.375C11.25 8.06434 11.5018 7.8125 11.8125 7.8125C12.1232 7.8125 12.375 8.06434 12.375 8.375V8.9375C12.375 10.8015 10.864 12.3125 9 12.3125C7.13604 12.3125 5.625 10.8015 5.625 8.9375V8.375C5.625 8.06434 5.87684 7.8125 6.1875 7.8125C6.49816 7.8125 6.75 8.06434 6.75 8.375V8.9375Z" fill="#475569"/>
</g>
</svg>
